<?xml version="1.0" standalone="no"?>
<!DOCTYPE svg PUBLIC "-//W3C//DTD SVG 20010904//EN"
 "http://www.w3.org/TR/2001/REC-SVG-20010904/DTD/svg10.dtd">
<svg version="1.0" xmlns="http://www.w3.org/2000/svg"
 width="260.000000pt" height="260.000000pt" viewBox="0 0 260.000000 260.000000"
 preserveAspectRatio="xMidYMid meet">
<metadata>
Created by potrace 1.14, written by Peter Selinger 2001-2017
</metadata>
<g transform="translate(0.000000,260.000000) scale(0.100000,-0.100000)"
fill="#000000" stroke="none">
<path d="M0 1300 l0 -1300 1300 0 1300 0 0 1300 0 1300 -1300 0 -1300 0 0
-1300z m752 449 l78 -21 0 -89 0 -88 -56 26 c-30 14 -84 30 -118 36 -54 9 -70
8 -109 -7 -36 -14 -48 -24 -57 -50 -22 -67 4 -90 180 -157 66 -25 95 -43 135
-83 62 -62 80 -115 73 -216 -7 -98 -42 -154 -123 -195 -56 -28 -65 -30 -179
-30 -101 0 -132 4 -188 23 l-68 24 0 93 0 93 68 -34 c165 -85 312 -61 312 50
0 61 -26 89 -113 122 -221 83 -272 134 -271 274 0 84 20 134 72 183 71 68 215
86 364 46z m808 -74 l0 -75 -85 0 -85 0 0 -280 0 -280 85 0 85 0 0 -75 0 -75
-255 0 -255 0 0 75 0 75 85 0 85 0 0 280 0 280 -85 0 -85 0 0 75 0 75 255 0
255 0 0 -75z m588 60 c28 -9 65 -28 83 -42 92 -78 90 -253 -3 -311 -20 -12
-44 -22 -54 -23 -11 0 4 -10 31 -23 93 -42 132 -116 122 -233 -7 -91 -38 -140
-111 -178 l-60 -30 -213 -3 -213 -4 0 431 0 431 183 0 c135 0 197 -4 235 -15z"/>
<path d="M1900 1514 l0 -97 84 5 c124 6 161 41 132 128 -14 43 -52 59 -148 59
l-68 1 0 -96z"/>
<path d="M1900 1155 l0 -125 68 0 c80 1 139 13 160 34 10 10 18 39 20 78 3 53
1 67 -17 90 -27 34 -75 48 -163 48 l-68 0 0 -125z"/>
</g>
</svg>
